<svg xmlns="http://www.w3.org/2000/svg" viewBox="0 0 712 470" width="712" height="470">
  <path fill="#ca8a04" fill-rule="evenodd" d="M 7 20 L 0 42 L 1 161 L 8 167 L 24 167 L 38 171 L 52 180 L 67 198 L 74 220 L 74 233 L 69 251 L 65 259 L 50 275 L 32 284 L 8 286 L 1 292 L 1 434 L 10 453 L 23 464 L 39 469 L 267 469 L 271 467 L 273 445 L 272 211 L 274 206 L 417 206 L 438 215 L 450 227 L 458 241 L 461 253 L 459 276 L 451 292 L 438 305 L 427 311 L 415 314 L 342 314 L 336 318 L 335 355 L 342 361 L 424 360 L 442 355 L 460 346 L 484 325 L 493 312 L 503 289 L 507 265 L 503 231 L 492 206 L 470 181 L 440 164 L 417 159 L 235 159 L 229 163 L 227 168 L 227 422 L 47 423 L 46 328 L 74 315 L 98 292 L 113 265 L 120 231 L 117 201 L 112 185 L 103 168 L 82 144 L 66 133 L 46 124 L 47 47 L 664 47 L 666 49 L 665 125 L 635 142 L 619 158 L 609 172 L 597 202 L 595 241 L 605 274 L 621 298 L 639 314 L 666 329 L 665 422 L 340 423 L 335 428 L 335 463 L 341 469 L 672 469 L 690 463 L 704 449 L 711 429 L 711 294 L 704 286 L 685 285 L 664 275 L 646 254 L 640 235 L 641 214 L 653 189 L 670 174 L 685 168 L 704 167 L 711 160 L 711 40 L 706 23 L 690 6 L 674 0 L 37 0 L 23 5 Z"/>
</svg>